# xmcd CD database file
#
# Track frame offsets:
#	150
#	12044
#	32957
#	50132
#	77348
#	81916
#	100897
#	109365
#	133223
#	159850
#	174824
#	199180
#	207290
#
# Disc length: 2983 seconds
#
# Revision: 0
# Processed by: cddbd v1.4PL0 Copyright (c) Steve Scherf et al.
# Submitted via: CDex 1.51
#
DISCID=a50ba50d
DTITLE=Bottick - Eintopf
DYEAR=2001
DGENRE=Jazz
TTITLE0=wettex
TTITLE1=11 uhr
TTITLE2=muzenbacher
TTITLE3=kinderporno
TTITLE4=50 sec adler
TTITLE5=liebeslied
TTITLE6=familiengedicht
TTITLE7=christkind
TTITLE8=schwarzer walzer
TTITLE9=eifersucht
TTITLE10=obst
TTITLE11=jack and jill
TTITLE12=adio donna grazia
EXTD=YEAR: 2001
EXTT0=
EXTT1=
EXTT2=
EXTT3=
EXTT4=
EXTT5=
EXTT6=
EXTT7=
EXTT8=
EXTT9=
EXTT10=
EXTT11=
EXTT12=
PLAYORDER=
